<mxfile host="app.diagrams.net" modified="2020-12-22T11:27:28.748Z" agent="5.0 (Macintosh; Intel Mac OS X 11_0_1) AppleWebKit/537.36 (KHTML, like Gecko) Chrome/87.0.4280.88 Safari/537.36 Edg/87.0.664.66" etag="oYgfhiAFn2YXHDIW8jSV" version="14.1.1" type="github">
  <diagram id="BS3uC1bczF2PfuS3s9od" name="第 1 页">
    <mxGraphModel dx="1426" dy="914" grid="1" gridSize="10" guides="1" tooltips="1" connect="1" arrows="1" fold="1" page="1" pageScale="1" pageWidth="827" pageHeight="1169" math="0" shadow="0">
      <root>
        <mxCell id="0" />
        <mxCell id="1" parent="0" />
        <mxCell id="ufoNxCCe5xQwR1A1z20N-2" value="COMMIT 类型" style="rounded=0;whiteSpace=wrap;html=1;fillColor=#d5e8d4;strokeColor=#82b366;" vertex="1" parent="1">
          <mxGeometry x="350" width="120" height="60" as="geometry" />
        </mxCell>
        <mxCell id="ufoNxCCe5xQwR1A1z20N-3" value="TREE 类型" style="rounded=0;whiteSpace=wrap;html=1;fillColor=#fff2cc;strokeColor=#d6b656;" vertex="1" parent="1">
          <mxGeometry x="480" width="120" height="60" as="geometry" />
        </mxCell>
        <mxCell id="ufoNxCCe5xQwR1A1z20N-4" value="BLOB 类型" style="rounded=0;whiteSpace=wrap;html=1;fillColor=#ffe6cc;strokeColor=#d79b00;" vertex="1" parent="1">
          <mxGeometry x="610" width="120" height="60" as="geometry" />
        </mxCell>
        <mxCell id="ufoNxCCe5xQwR1A1z20N-8" value="" style="edgeStyle=orthogonalEdgeStyle;rounded=0;orthogonalLoop=1;jettySize=auto;html=1;" edge="1" parent="1" source="ufoNxCCe5xQwR1A1z20N-5" target="ufoNxCCe5xQwR1A1z20N-7">
          <mxGeometry relative="1" as="geometry" />
        </mxCell>
        <mxCell id="ufoNxCCe5xQwR1A1z20N-5" value="COMMIT ID=6d37" style="rounded=0;whiteSpace=wrap;html=1;fillColor=#d5e8d4;strokeColor=#82b366;" vertex="1" parent="1">
          <mxGeometry x="150" y="220" width="120" height="60" as="geometry" />
        </mxCell>
        <mxCell id="ufoNxCCe5xQwR1A1z20N-7" value="TREE ID=e42d" style="whiteSpace=wrap;html=1;rounded=0;strokeColor=#d6b656;fillColor=#fff2cc;" vertex="1" parent="1">
          <mxGeometry x="150" y="360" width="120" height="60" as="geometry" />
        </mxCell>
      </root>
    </mxGraphModel>
  </diagram>
</mxfile>
